 <svg width="14" height="8" viewBox="0 0 14 8" fill="none" xmlns="http://www.w3.org/2000/svg">
<path
    d="M13.5909 1.71002L8.00089 7.29002C7.81353 7.47627 7.56008 7.58081 7.29589 7.58081C7.03171 7.58081 6.77826 7.47627 6.59089 7.29002L1.00089 1.71002C0.859865 1.57015 0.763684 1.39145 0.724614 1.1967C0.685545 1.00195 0.705356 0.79998 0.781523 0.616536C0.85769 0.433092 0.986761 0.276487 1.15228 0.166686C1.3178 0.0568843 1.51227 -0.00113726 1.71089 1.7643e-05L12.8809 1.7643e-05C13.0795 -0.00113726 13.274 0.0568843 13.4395 0.166686C13.605 0.276487 13.7341 0.433092 13.8103 0.616536C13.8864 0.79998 13.9062 1.00195 13.8672 1.1967C13.8281 1.39145 13.7319 1.57015 13.5909 1.71002Z"
    fill="#B8B8B8"
/>
</svg>