<svg width="24" height="24" viewBox="0 0 24 24" fill="none" xmlns="http://www.w3.org/2000/svg">
<g clip-path="url(#clip0_351_1891)">
<path d="M22.5535 13.662L20.6535 6.82595C20.0966 4.82328 18.8863 3.06424 17.2149 1.82842C15.5435 0.592603 13.5069 -0.0490638 11.429 0.00541635C9.35104 0.0598965 7.35093 0.807397 5.74658 2.1291C4.14223 3.4508 3.02572 5.27085 2.57452 7.29995L1.10352 13.915C0.941032 14.6459 0.944789 15.404 1.11451 16.1333C1.28423 16.8626 1.61558 17.5444 2.0841 18.1285C2.55262 18.7126 3.14634 19.184 3.82143 19.5079C4.49652 19.8318 5.23574 20 5.98452 20H7.09852C7.32803 21.1302 7.94125 22.1464 8.83426 22.8763C9.72727 23.6062 10.8452 24.005 11.9985 24.005C13.1519 24.005 14.2698 23.6062 15.1628 22.8763C16.0558 22.1464 16.669 21.1302 16.8985 20H17.7365C18.5073 20 19.2677 19.8218 19.9583 19.4794C20.6488 19.1369 21.2509 18.6395 21.7173 18.0258C22.1838 17.4122 22.5021 16.699 22.6473 15.942C22.7925 15.185 22.7608 14.4046 22.5545 13.662H22.5535ZM11.9985 22C11.3803 21.9974 10.7779 21.8039 10.2738 21.4459C9.76975 21.0879 9.3886 20.5829 9.18252 20H14.8145C14.6084 20.5829 14.2273 21.0879 13.7232 21.4459C13.2191 21.8039 12.6168 21.9974 11.9985 22ZM20.1245 16.815C19.8459 17.1846 19.4848 17.4842 19.0701 17.6899C18.6554 17.8956 18.1984 18.0018 17.7355 18H5.98452C5.5353 17.9999 5.09184 17.8989 4.68686 17.7045C4.28188 17.5101 3.92572 17.2273 3.64468 16.8768C3.36363 16.5264 3.16488 16.1173 3.06308 15.6798C2.96128 15.2423 2.95904 14.7875 3.05652 14.349L4.52652 7.73295C4.88087 6.13916 5.75782 4.70955 7.01797 3.6714C8.27812 2.63324 9.84914 2.04612 11.4813 2.00336C13.1134 1.96061 14.713 2.46467 16.0258 3.43542C17.3386 4.40617 18.2892 5.7879 18.7265 7.36095L20.6265 14.1969C20.7521 14.6423 20.7721 15.1108 20.6849 15.5653C20.5978 16.0197 20.4059 16.4476 20.1245 16.815Z" fill="#007A8C"/>
</g>
<defs>
<clipPath id="clip0_351_1891">
<rect width="24" height="24" fill="white"/>
</clipPath>
</defs>
</svg>
