<svg width="25" height="24" viewBox="0 0 25 24" fill="none" xmlns="http://www.w3.org/2000/svg">
<path d="M19.2098 8.21C19.1169 8.11627 19.0063 8.04188 18.8844 7.99111C18.7625 7.94034 18.6318 7.9142 18.4998 7.9142C18.3678 7.9142 18.2371 7.94034 18.1152 7.99111C17.9934 8.04188 17.8828 8.11627 17.7898 8.21L13.2098 12.79C13.1169 12.8837 13.0063 12.9581 12.8844 13.0089C12.7625 13.0596 12.6318 13.0858 12.4998 13.0858C12.3678 13.0858 12.2371 13.0596 12.1152 13.0089C11.9934 12.9581 11.8828 12.8837 11.7898 12.79L7.20982 8.21C7.11685 8.11627 7.00625 8.04188 6.88439 7.99111C6.76253 7.94034 6.63183 7.9142 6.49982 7.9142C6.3678 7.9142 6.2371 7.94034 6.11524 7.99111C5.99338 8.04188 5.88278 8.11627 5.78982 8.21C5.60356 8.39736 5.49902 8.65081 5.49902 8.915C5.49902 9.17918 5.60356 9.43263 5.78982 9.62L10.3798 14.21C10.9423 14.7718 11.7048 15.0873 12.4998 15.0873C13.2948 15.0873 14.0573 14.7718 14.6198 14.21L19.2098 9.62C19.3961 9.43263 19.5006 9.17918 19.5006 8.915C19.5006 8.65081 19.3961 8.39736 19.2098 8.21Z" fill="#374957"/>
</svg>
