<svg width="24" height="24" viewBox="0 0 24 24" fill="none" xmlns="http://www.w3.org/2000/svg">
<g clip-path="url(#clip0_254_486)">
<path d="M22.9498 9.59987C22.7623 9.4124 22.5079 9.30709 22.2428 9.30709C21.9776 9.30709 21.7233 9.4124 21.5358 9.59987L10.6438 20.5389C10.1795 21.0032 9.62829 21.3716 9.02164 21.6229C8.41499 21.8743 7.76478 22.0036 7.10813 22.0037C5.78197 22.0038 4.51008 21.477 3.57228 20.5394C2.63447 19.6017 2.10757 18.3299 2.10747 17.0037C2.10738 15.6776 2.63411 14.4057 3.57178 13.4679L14.1208 2.87587C14.6849 2.32077 15.4455 2.01104 16.2369 2.01417C17.0283 2.0173 17.7864 2.33303 18.3461 2.89258C18.9058 3.45213 19.2217 4.21017 19.225 5.00158C19.2283 5.79299 18.9188 6.55365 18.3638 7.11787L7.81478 17.7099C7.62453 17.8921 7.37124 17.9939 7.10778 17.9939C6.84431 17.9939 6.59103 17.8921 6.40078 17.7099C6.21331 17.5223 6.10799 17.268 6.10799 17.0029C6.10799 16.7377 6.21331 16.4834 6.40078 16.2959L15.7928 6.86087C15.9749 6.67227 16.0757 6.41967 16.0735 6.15747C16.0712 5.89528 15.966 5.64446 15.7806 5.45906C15.5952 5.27365 15.3444 5.16848 15.0822 5.1662C14.82 5.16392 14.5674 5.26472 14.3788 5.44687L4.98678 14.8819C4.70815 15.1605 4.48713 15.4912 4.33633 15.8552C4.18553 16.2192 4.10792 16.6094 4.10792 17.0034C4.10792 17.3974 4.18553 17.7875 4.33633 18.1515C4.48713 18.5156 4.70815 18.8463 4.98678 19.1249C5.5584 19.6703 6.31816 19.9747 7.10828 19.9747C7.8984 19.9747 8.65816 19.6703 9.22978 19.1249L19.7778 8.53187C20.6958 7.59018 21.2058 6.32473 21.1974 5.00965C21.1889 3.69457 20.6627 2.43575 19.7328 1.5059C18.8028 0.576042 17.5439 0.0500193 16.2288 0.0417793C14.9137 0.0335394 13.6483 0.543745 12.7068 1.46187L2.15778 12.0539C0.844957 13.3667 0.107422 15.1473 0.107422 17.0039C0.107422 18.8605 0.844957 20.6411 2.15778 21.9539C3.4706 23.2667 5.25117 24.0042 7.10778 24.0042C8.96439 24.0042 10.745 23.2667 12.0578 21.9539L22.9498 11.0179C23.0432 10.9249 23.1173 10.8145 23.1679 10.6928C23.2185 10.5711 23.2446 10.4406 23.2446 10.3089C23.2446 10.1771 23.2185 10.0466 23.1679 9.92495C23.1173 9.80328 23.0432 9.6928 22.9498 9.59987Z" fill="#636C72" fill-opacity="0.4"/>
</g>
<defs>
<clipPath id="clip0_254_486">
<rect width="24" height="24" fill="white"/>
</clipPath>
</defs>
</svg>
