<svg width="15" height="15" viewBox="0 0 15 15" fill="none" xmlns="http://www.w3.org/2000/svg">
<g clip-path="url(#clip0_294_3057)">
<path d="M6.25 6.24983C5.75272 6.24983 5.27581 6.44737 4.92417 6.799C4.57254 7.15063 4.375 7.62755 4.375 8.12483C4.375 8.62211 4.57254 9.09902 4.92417 9.45065C5.27581 9.80228 5.75272 9.99983 6.25 9.99983H8.75C9.24728 9.99983 9.72419 9.80228 10.0758 9.45065C10.4275 9.09902 10.625 8.62211 10.625 8.12483C10.625 7.62755 10.4275 7.15063 10.0758 6.799C9.72419 6.44737 9.24728 6.24983 8.75 6.24983H6.25ZM9.375 8.12483C9.375 8.29059 9.30915 8.44956 9.19194 8.56677C9.07473 8.68398 8.91576 8.74983 8.75 8.74983H6.25C6.08424 8.74983 5.92527 8.68398 5.80806 8.56677C5.69085 8.44956 5.625 8.29059 5.625 8.12483C5.625 7.95907 5.69085 7.8001 5.80806 7.68289C5.92527 7.56568 6.08424 7.49983 6.25 7.49983H8.75C8.91576 7.49983 9.07473 7.56568 9.19194 7.68289C9.30915 7.8001 9.375 7.95907 9.375 8.12483ZM10.625 11.8748C10.625 12.0406 10.5592 12.1996 10.4419 12.3168C10.3247 12.434 10.1658 12.4998 10 12.4998H5C4.83424 12.4998 4.67527 12.434 4.55806 12.3168C4.44085 12.1996 4.375 12.0406 4.375 11.8748C4.375 11.7091 4.44085 11.5501 4.55806 11.4329C4.67527 11.3157 4.83424 11.2498 5 11.2498H10C10.1658 11.2498 10.3247 11.3157 10.4419 11.4329C10.5592 11.5501 10.625 11.7091 10.625 11.8748ZM12.21 1.95045L11.1738 0.915451C10.8843 0.624358 10.54 0.393553 10.1608 0.236388C9.78152 0.0792226 9.37489 -0.00118184 8.96438 -0.000173742H5C4.1715 0.000818669 3.37722 0.330378 2.79139 0.916214C2.20555 1.50205 1.87599 2.29633 1.875 3.12483V11.8748C1.87599 12.7033 2.20555 13.4976 2.79139 14.0834C3.37722 14.6693 4.1715 14.9988 5 14.9998H10C10.8285 14.9988 11.6228 14.6693 12.2086 14.0834C12.7944 13.4976 13.124 12.7033 13.125 11.8748V4.16045C13.1262 3.74988 13.0459 3.34315 12.8888 2.96381C12.7318 2.58446 12.5011 2.24003 12.21 1.95045V1.95045ZM11.3262 2.8342C11.4142 2.92322 11.4933 3.02055 11.5625 3.12483H10V1.56233C10.1044 1.63078 10.2016 1.70973 10.29 1.79795L11.3262 2.8342ZM11.875 11.8748C11.875 12.3721 11.6775 12.849 11.3258 13.2007C10.9742 13.5523 10.4973 13.7498 10 13.7498H5C4.50272 13.7498 4.02581 13.5523 3.67417 13.2007C3.32254 12.849 3.125 12.3721 3.125 11.8748V3.12483C3.125 2.62755 3.32254 2.15063 3.67417 1.799C4.02581 1.44737 4.50272 1.24983 5 1.24983H8.75V3.12483C8.75 3.45635 8.8817 3.77429 9.11612 4.00871C9.35054 4.24313 9.66848 4.37483 10 4.37483H11.875V11.8748Z" fill="#BBBBBB"/>
</g>
<defs>
<clipPath id="clip0_294_3057">
<rect width="15" height="15" fill="white"/>
</clipPath>
</defs>
</svg>
