<svg width="15" height="15" viewBox="0 0 15 15" fill="none" xmlns="http://www.w3.org/2000/svg">
<g clip-path="url(#clip0_294_3067)">
<path d="M13.75 10.625V11.875C13.75 12.3723 13.5525 12.8492 13.2008 13.2008C12.8492 13.5525 12.3723 13.75 11.875 13.75H3.125C2.62772 13.75 2.15081 13.5525 1.79917 13.2008C1.44754 12.8492 1.25 12.3723 1.25 11.875V10.625C1.25 10.4592 1.18415 10.3003 1.06694 10.1831C0.949732 10.0658 0.79076 10 0.625 10C0.45924 10 0.300269 10.0658 0.183058 10.1831C0.065848 10.3003 0 10.4592 0 10.625L0 11.875C0.000992411 12.7035 0.330551 13.4978 0.916387 14.0836C1.50222 14.6694 2.2965 14.999 3.125 15H11.875C12.7035 14.999 13.4978 14.6694 14.0836 14.0836C14.6694 13.4978 14.999 12.7035 15 11.875V10.625C15 10.4592 14.9342 10.3003 14.8169 10.1831C14.6997 10.0658 14.5408 10 14.375 10C14.2092 10 14.0503 10.0658 13.9331 10.1831C13.8158 10.3003 13.75 10.4592 13.75 10.625Z" fill="#BBBBBB"/>
<path d="M6.87487 0.625084L6.89487 10.4857C6.79305 10.4309 6.69925 10.3623 6.61612 10.282L4.19174 7.85758C4.13409 7.79789 4.06512 7.75028 3.98887 7.71752C3.91262 7.68477 3.83061 7.66752 3.74762 7.6668C3.66463 7.66608 3.58233 7.6819 3.50552 7.71332C3.42871 7.74475 3.35893 7.79115 3.30025 7.84984C3.24156 7.90852 3.19515 7.9783 3.16373 8.05511C3.1323 8.13192 3.11649 8.21422 3.11721 8.29721C3.11793 8.3802 3.13517 8.46221 3.16793 8.53846C3.20068 8.61471 3.2483 8.68368 3.30799 8.74133L5.73237 11.167C6.20119 11.6356 6.83696 11.8989 7.49987 11.8989C8.16278 11.8989 8.79855 11.6356 9.26737 11.167L11.6917 8.74258C11.7514 8.68493 11.7991 8.61596 11.8318 8.53971C11.8646 8.46346 11.8818 8.38145 11.8825 8.29846C11.8832 8.21547 11.8674 8.13317 11.836 8.05636C11.8046 7.97955 11.7582 7.90977 11.6995 7.85109C11.6408 7.79241 11.571 7.746 11.4942 7.71457C11.4174 7.68315 11.3351 7.66733 11.2521 7.66805C11.1691 7.66877 11.0871 7.68602 11.0109 7.71877C10.9346 7.75153 10.8656 7.79914 10.808 7.85883L8.38362 10.2832C8.31159 10.3532 8.23143 10.4142 8.14487 10.4651L8.12487 0.625084C8.12487 0.459324 8.05902 0.300352 7.94181 0.183142C7.8246 0.0659313 7.66563 8.39233e-05 7.49987 8.39233e-05C7.33411 8.39233e-05 7.17514 0.0659313 7.05793 0.183142C6.94072 0.300352 6.87487 0.459324 6.87487 0.625084Z" fill="#BBBBBB"/>
</g>
<defs>
<clipPath id="clip0_294_3067">
<rect width="15" height="15" fill="white" transform="matrix(0 -1 1 0 0 15)"/>
</clipPath>
</defs>
</svg>
