<svg width="24" height="24" viewBox="0 0 24 24" fill="none" xmlns="http://www.w3.org/2000/svg">
<g clip-path="url(#clip0_254_487)">
<path d="M19 8.39233e-05H5C3.6744 0.00167178 2.40356 0.528966 1.46622 1.4663C0.528882 2.40364 0.00158786 3.67449 0 5.00008L0 19.0001C0.00158786 20.3257 0.528882 21.5965 1.46622 22.5339C2.40356 23.4712 3.6744 23.9985 5 24.0001H19C20.3256 23.9985 21.5964 23.4712 22.5338 22.5339C23.4711 21.5965 23.9984 20.3257 24 19.0001V5.00008C23.9984 3.67449 23.4711 2.40364 22.5338 1.4663C21.5964 0.528966 20.3256 0.00167178 19 8.39233e-05V8.39233e-05ZM5 2.00008H19C19.7956 2.00008 20.5587 2.31615 21.1213 2.87876C21.6839 3.44137 22 4.20443 22 5.00008V19.0001C21.9983 19.4456 21.8957 19.8849 21.7 20.2851L12.537 11.1221C12.0727 10.6577 11.5214 10.2892 10.9147 10.0379C10.308 9.78652 9.65772 9.65715 9.001 9.65715C8.34428 9.65715 7.69399 9.78652 7.08728 10.0379C6.48056 10.2892 5.92931 10.6577 5.465 11.1221L2 14.5861V5.00008C2 4.20443 2.31607 3.44137 2.87868 2.87876C3.44129 2.31615 4.20435 2.00008 5 2.00008V2.00008ZM5 22.0001C4.20435 22.0001 3.44129 21.684 2.87868 21.1214C2.31607 20.5588 2 19.7957 2 19.0001V17.4141L6.878 12.5361C7.1566 12.2573 7.4874 12.0362 7.85151 11.8853C8.21561 11.7344 8.60587 11.6567 9 11.6567C9.39413 11.6567 9.78439 11.7344 10.1485 11.8853C10.5126 12.0362 10.8434 12.2573 11.122 12.5361L20.285 21.7001C19.8848 21.8958 19.4455 21.9984 19 22.0001H5Z" fill="#636C72" fill-opacity="0.4"/>
<path d="M16 10.4997C16.6922 10.4997 17.3689 10.2945 17.9445 9.90988C18.5201 9.52529 18.9687 8.97867 19.2336 8.33913C19.4985 7.69959 19.5678 6.99585 19.4327 6.31692C19.2977 5.63799 18.9644 5.01435 18.4749 4.52486C17.9854 4.03538 17.3617 3.70203 16.6828 3.56699C16.0039 3.43194 15.3002 3.50125 14.6606 3.76616C14.0211 4.03106 13.4744 4.47967 13.0899 5.05524C12.7053 5.63081 12.5 6.3075 12.5 6.99974C12.5 7.92799 12.8687 8.81823 13.5251 9.47461C14.1815 10.131 15.0717 10.4997 16 10.4997V10.4997ZM16 5.49973C16.2967 5.49973 16.5867 5.58771 16.8334 5.75253C17.08 5.91735 17.2723 6.15162 17.3858 6.42571C17.4994 6.6998 17.5291 7.0014 17.4712 7.29237C17.4133 7.58334 17.2704 7.85062 17.0607 8.0604C16.8509 8.27017 16.5836 8.41304 16.2926 8.47091C16.0017 8.52879 15.7001 8.49909 15.426 8.38555C15.1519 8.27202 14.9176 8.07976 14.7528 7.83309C14.588 7.58642 14.5 7.29641 14.5 6.99974C14.5 6.60191 14.658 6.22038 14.9393 5.93907C15.2206 5.65777 15.6022 5.49973 16 5.49973V5.49973Z" fill="#636C72" fill-opacity="0.4"/>
</g>
<defs>
<clipPath id="clip0_254_487">
<rect width="24" height="24" fill="white"/>
</clipPath>
</defs>
</svg>
