<svg width="24" height="24" viewBox="0 0 24 24" fill="none" xmlns="http://www.w3.org/2000/svg">
<g clip-path="url(#clip0_234_1007)">
<path d="M8.06055 8.80028H2.06056C1.79534 8.80028 1.54099 8.90564 1.35346 9.09318C1.16592 9.28071 1.06056 9.53507 1.06056 9.80029C1.06056 10.0655 1.16592 10.3199 1.35346 10.5074C1.54099 10.6949 1.79534 10.8003 2.06056 10.8003H8.06055C8.32576 10.8003 8.58012 10.6949 8.76765 10.5074C8.95519 10.3199 9.06055 10.0655 9.06055 9.80029C9.06055 9.53507 8.95519 9.28071 8.76765 9.09318C8.58012 8.90564 8.32576 8.80028 8.06055 8.80028Z" fill="white"/>
<path d="M8.06055 12H2.06056C1.79534 12 1.54099 12.1053 1.35346 12.2929C1.16592 12.4804 1.06056 12.7348 1.06056 13C1.06056 13.2652 1.16592 13.5196 1.35346 13.7071C1.54099 13.8946 1.79534 14 2.06056 14H8.06055C8.32576 14 8.58012 13.8946 8.76765 13.7071C8.95519 13.5196 9.06055 13.2652 9.06055 13C9.06055 12.7348 8.95519 12.4804 8.76765 12.2929C8.58012 12.1053 8.32576 12 8.06055 12Z" fill="white"/>
<path d="M8.06055 15H2.06056C1.79534 15 1.54099 15.1053 1.35346 15.2929C1.16592 15.4804 1.06056 15.7348 1.06056 16C1.06056 16.2652 1.16592 16.5196 1.35346 16.7071C1.54099 16.8946 1.79534 17 2.06056 17H8.06055C8.32576 17 8.58012 16.8946 8.76765 16.7071C8.95519 16.5196 9.06055 16.2652 9.06055 16C9.06055 15.7348 8.95519 15.4804 8.76765 15.2929C8.58012 15.1053 8.32576 15 8.06055 15Z" fill="white"/>
<path d="M24 19L24 5C23.9984 3.67441 23.4711 2.40356 22.5338 1.46622C21.5964 0.528882 20.3256 0.00158786 19 0L18 0C17.5783 0.000290807 17.1613 0.0895008 16.7764 0.261809C16.3914 0.434117 16.0472 0.685652 15.766 1L5 1C3.6744 1.00159 2.40356 1.52888 1.46622 2.46622C0.528881 3.40356 0.00158691 4.67441 0 6L0 18C0.00158691 19.3256 0.528881 20.5964 1.46622 21.5338C2.40356 22.4711 3.6744 22.9984 5 23L15.766 23C16.0472 23.3143 16.3914 23.5659 16.7764 23.7382C17.1613 23.9105 17.5783 23.9997 18 24H19C20.3256 23.9984 21.5964 23.4711 22.5338 22.5338C23.4711 21.5964 23.9984 20.3256 24 19ZM19 2C19.7956 2 20.5587 2.31607 21.1213 2.87868C21.6839 3.44129 22 4.20435 22 5L22 19C22 19.7956 21.6839 20.5587 21.1213 21.1213C20.5587 21.6839 19.7956 22 19 22H18C17.7348 22 17.4804 21.8946 17.2929 21.7071C17.1054 21.5196 17 21.2652 17 21L17 3C17 2.73478 17.1054 2.48043 17.2929 2.29289C17.4804 2.10536 17.7348 2 18 2L19 2ZM5 21C4.20435 21 3.44129 20.6839 2.87868 20.1213C2.31607 19.5587 2 18.7956 2 18L2 6C2 5.20435 2.31607 4.44129 2.87868 3.87868C3.44129 3.31607 4.20435 3 5 3L15 3L15 21L5 21Z" fill="white"/>
</g>
<defs>
<clipPath id="clip0_234_1007">
<rect width="24" height="24" fill="white" transform="translate(24) rotate(90)"/>
</clipPath>
</defs>
</svg>
