<svg width="20" height="20" viewBox="0 0 20 20" fill="none" xmlns="http://www.w3.org/2000/svg">
<g clip-path="url(#clip0_294_857)">
<path d="M15.8333 0H4.16667C3.062 0.00132321 2.00296 0.440735 1.22185 1.22185C0.440735 2.00296 0.00132321 3.062 0 4.16667L0 15.8333C0.00132321 16.938 0.440735 17.997 1.22185 18.7782C2.00296 19.5593 3.062 19.9987 4.16667 20H15.8333C16.938 19.9987 17.997 19.5593 18.7782 18.7782C19.5593 17.997 19.9987 16.938 20 15.8333V4.16667C19.9987 3.062 19.5593 2.00296 18.7782 1.22185C17.997 0.440735 16.938 0.00132321 15.8333 0V0ZM16.6667 9.16667H18.3333V10.8333H16.6667V9.16667ZM16.6667 7.5V5.83333H18.3333V7.5H16.6667ZM15 9.16667H5V1.66667H15V9.16667ZM3.33333 10.8333H1.66667V9.16667H3.33333V10.8333ZM3.33333 7.5H1.66667V5.83333H3.33333V7.5ZM1.66667 12.5H3.33333V14.1667H1.66667V12.5ZM5 10.8333H15V18.3333H5V10.8333ZM16.6667 12.5H18.3333V14.1667H16.6667V12.5ZM18.3333 4.16667H16.6667V1.82C17.1524 1.99174 17.5733 2.30936 17.8716 2.72942C18.1699 3.14948 18.3312 3.65145 18.3333 4.16667ZM3.33333 1.82V4.16667H1.66667C1.6688 3.65145 1.83007 3.14948 2.12841 2.72942C2.42674 2.30936 2.84758 1.99174 3.33333 1.82ZM1.66667 15.8333H3.33333V18.18C2.84758 18.0083 2.42674 17.6906 2.12841 17.2706C1.83007 16.8505 1.6688 16.3486 1.66667 15.8333ZM16.6667 18.18V15.8333H18.3333C18.3312 16.3486 18.1699 16.8505 17.8716 17.2706C17.5733 17.6906 17.1524 18.0083 16.6667 18.18Z" fill="#B8B8B8"/>
</g>
<defs>
<clipPath id="clip0_294_857">
<rect width="20" height="20" fill="white"/>
</clipPath>
</defs>
</svg>
