<svg width="8" height="15" viewBox="0 0 8 15" fill="none" xmlns="http://www.w3.org/2000/svg">
<path
d="M1.1002 5.38006L5.6902 0.79006C5.87756 0.603809 6.13101 0.499268 6.3952 0.499268C6.65938 0.499268 6.91284 0.603809 7.1002 0.79006C7.19393 0.883023 7.26832 0.993624 7.31909 1.11548C7.36986 1.23734 7.396 1.36805 7.396 1.50006C7.396 1.63207 7.36986 1.76278 7.31909 1.88464C7.26832 2.0065 7.19393 2.1171 7.1002 2.21006L2.5002 6.79006C2.40647 6.88302 2.33207 6.99362 2.28131 7.11548C2.23054 7.23734 2.2044 7.36805 2.2044 7.50006C2.2044 7.63207 2.23054 7.76278 2.28131 7.88464C2.33207 8.0065 2.40647 8.1171 2.5002 8.21006L7.1002 12.7901C7.2885 12.977 7.39482 13.2312 7.39575 13.4965C7.39669 13.7619 7.29217 14.0168 7.1052 14.2051C6.91822 14.3934 6.6641 14.4997 6.39873 14.5006C6.13337 14.5016 5.8785 14.397 5.6902 14.2101L1.1002 9.62006C0.538395 9.05756 0.222836 8.29506 0.222836 7.50006C0.222836 6.70506 0.538395 5.94256 1.1002 5.38006Z"
fill="white"
/>
</svg>