<svg width="24" height="25" viewBox="0 0 24 25" fill="none" xmlns="http://www.w3.org/2000/svg">
<g clipPath="url(#clip0_657_1815)">
<path
    d="M22.853 1.64801C22.1732 0.969212 21.2517 0.587952 20.291 0.587952C19.3303 0.587952 18.4089 0.969212 17.729 1.64801L1.46502 17.912C0.999266 18.3751 0.629977 18.926 0.378513 19.5328C0.127049 20.1396 -0.00159798 20.7902 1.49812e-05 21.447V23.5C1.49812e-05 23.7652 0.105372 24.0196 0.292908 24.2071C0.480445 24.3947 0.734799 24.5 1.00002 24.5H3.05301C3.70978 24.5019 4.36038 24.3734 4.96717 24.1221C5.57396 23.8708 6.12487 23.5017 6.58801 23.036L22.853 6.77101C23.5315 6.09121 23.9126 5.16998 23.9126 4.20951C23.9126 3.24905 23.5315 2.32782 22.853 1.64801ZM5.17401 21.622C4.61002 22.1823 3.84798 22.4977 3.05301 22.5H2.00002V21.447C1.999 21.0529 2.07617 20.6625 2.22705 20.2985C2.37793 19.9344 2.59953 19.6039 2.87901 19.326L15.222 6.98301L17.522 9.28302L5.17401 21.622ZM21.438 5.35701L18.932 7.86401L16.632 5.56901L19.139 3.06201C19.29 2.91132 19.4693 2.79185 19.6664 2.71042C19.8636 2.629 20.0749 2.5872 20.2883 2.58744C20.5016 2.58767 20.7128 2.62992 20.9098 2.71178C21.1069 2.79363 21.2858 2.91349 21.4365 3.06451C21.5872 3.21553 21.7067 3.39476 21.7881 3.59195C21.8695 3.78914 21.9113 4.00044 21.9111 4.21378C21.9109 4.42713 21.8686 4.63833 21.7868 4.83535C21.7049 5.03236 21.585 5.21132 21.434 5.36201L21.438 5.35701Z"
    fill="#007A8C"
/>
</g>
<defs>
<clipPath id="clip0_657_1815">
    <rect width="24" height="24" fill="white" transform="translate(0 0.5)" />
</clipPath>
</defs>
</svg>