<svg width="8" height="15" viewBox="0 0 8 15" fill="none" xmlns="http://www.w3.org/2000/svg">
<path
d="M6.8998 5.38006L2.3098 0.79006C2.12244 0.603809 1.86899 0.499268 1.6048 0.499268C1.34062 0.499268 1.08716 0.603809 0.899802 0.79006C0.806074 0.883023 0.73168 0.993624 0.680911 1.11548C0.630142 1.23734 0.604004 1.36805 0.604004 1.50006C0.604004 1.63207 0.630142 1.76278 0.680911 1.88464C0.73168 2.0065 0.806074 2.1171 0.899802 2.21006L5.4998 6.79006C5.59353 6.88302 5.66793 6.99362 5.71869 7.11548C5.76946 7.23734 5.7956 7.36805 5.7956 7.50006C5.7956 7.63207 5.76946 7.76278 5.71869 7.88464C5.66793 8.0065 5.59353 8.1171 5.4998 8.21006L0.899802 12.7901C0.711499 12.977 0.605184 13.2312 0.604246 13.4965C0.603308 13.7619 0.707825 14.0168 0.894803 14.2051C1.08178 14.3934 1.3359 14.4997 1.60127 14.5006C1.86663 14.5016 2.1215 14.397 2.3098 14.2101L6.8998 9.62006C7.4616 9.05756 7.77716 8.29506 7.77716 7.50006C7.77716 6.70506 7.4616 5.94256 6.8998 5.38006V5.38006Z"
fill="white"
/>
</svg>