<svg width="20" height="20" viewBox="0 0 20 20" fill="none" xmlns="http://www.w3.org/2000/svg">
<g clip-path="url(#clip0_294_862)">
<path d="M10 0C8.02219 0 6.08879 0.58649 4.4443 1.6853C2.79981 2.78412 1.51809 4.3459 0.761209 6.17317C0.00433286 8.00043 -0.193701 10.0111 0.192152 11.9509C0.578004 13.8907 1.53041 15.6725 2.92894 17.0711C4.32746 18.4696 6.10929 19.422 8.0491 19.8079C9.98891 20.1937 11.9996 19.9957 13.8268 19.2388C15.6541 18.4819 17.2159 17.2002 18.3147 15.5557C19.4135 13.9112 20 11.9778 20 10C19.9971 7.34872 18.9426 4.80684 17.0679 2.9321C15.1932 1.05736 12.6513 0.00286757 10 0V0ZM10 18.3333C8.35183 18.3333 6.74066 17.8446 5.37025 16.9289C3.99984 16.0132 2.93174 14.7117 2.30101 13.189C1.67028 11.6663 1.50525 9.99076 1.82679 8.37425C2.14834 6.75774 2.94201 5.27288 4.10745 4.10744C5.27289 2.94201 6.75774 2.14833 8.37425 1.82679C9.99076 1.50525 11.6663 1.67027 13.189 2.301C14.7118 2.93173 16.0132 3.99984 16.9289 5.37025C17.8446 6.74066 18.3333 8.35182 18.3333 10C18.3309 12.2094 17.4522 14.3276 15.8899 15.8899C14.3276 17.4522 12.2094 18.3309 10 18.3333Z" fill="#B8B8B8"/>
<path d="M10.5968 4.21891C10.1163 4.13135 9.62235 4.15048 9.15001 4.27494C8.67766 4.3994 8.23844 4.62616 7.86343 4.93916C7.48841 5.25216 7.18677 5.64376 6.97986 6.08624C6.77294 6.52872 6.6658 7.01127 6.66602 7.49974C6.66602 7.72075 6.75381 7.93271 6.91009 8.08899C7.06637 8.24527 7.27833 8.33307 7.49935 8.33307C7.72036 8.33307 7.93232 8.24527 8.0886 8.08899C8.24488 7.93271 8.33268 7.72075 8.33268 7.49974C8.33247 7.25455 8.38636 7.01234 8.49051 6.79037C8.59465 6.5684 8.74649 6.37215 8.93519 6.2156C9.1239 6.05905 9.34482 5.94606 9.5822 5.88469C9.81958 5.82333 10.0676 5.81509 10.3085 5.86057C10.6377 5.92448 10.9404 6.08506 11.1779 6.32181C11.4154 6.55857 11.5769 6.86074 11.6418 7.18974C11.7074 7.53507 11.6621 7.8923 11.5125 8.21035C11.3628 8.5284 11.1164 8.79099 10.8085 8.96057C10.2987 9.25596 9.87733 9.68267 9.58845 10.1962C9.29957 10.7098 9.15369 11.2915 9.16601 11.8806V12.4997C9.16601 12.7208 9.25381 12.9327 9.41009 13.089C9.56637 13.2453 9.77833 13.3331 9.99934 13.3331C10.2204 13.3331 10.4323 13.2453 10.5886 13.089C10.7449 12.9327 10.8327 12.7208 10.8327 12.4997V11.8806C10.8222 11.5906 10.8883 11.303 11.0244 11.0466C11.1605 10.7903 11.3616 10.5744 11.6077 10.4206C12.2114 10.089 12.6976 9.57845 12.9994 8.95924C13.3012 8.34003 13.4037 7.64254 13.2929 6.96268C13.1821 6.28282 12.8634 5.65398 12.3806 5.16265C11.8978 4.67132 11.2747 4.34162 10.5968 4.21891Z" fill="#B8B8B8"/>
<path d="M10.8327 14.9997C10.8327 14.5395 10.4596 14.1664 9.99935 14.1664C9.53911 14.1664 9.16602 14.5395 9.16602 14.9997C9.16602 15.46 9.53911 15.8331 9.99935 15.8331C10.4596 15.8331 10.8327 15.46 10.8327 14.9997Z" fill="#B8B8B8"/>
</g>
<defs>
<clipPath id="clip0_294_862">
<rect width="20" height="20" fill="white"/>
</clipPath>
</defs>
</svg>
