<svg width="25" height="24" viewBox="0 0 25 24" fill="none" xmlns="http://www.w3.org/2000/svg">
<path d="M12.4809 0C13.0145 0 13.548 0.276562 13.8241 0.834375L16.8802 7.04062L23.7177 8.03437C24.9438 8.2125 25.4352 9.72656 24.546 10.5938L19.5992 15.4219L20.7692 22.2422C20.9798 23.4656 19.6928 24.3984 18.5977 23.8219L12.4809 20.6063V0Z" fill="#FFC403"/>
<path d="M12.5581 0C12.0246 0 11.4911 0.276562 11.215 0.834375L8.15891 7.04062L1.32141 8.03437C0.0952449 8.2125 -0.396156 9.72656 0.493046 10.5938L5.43982 15.4219L4.26982 22.2422C4.05922 23.4656 5.34622 24.3984 6.44134 23.8219L12.5581 20.6063V0Z" fill="#FFC403"/>
</svg>
