<svg width="25" height="24" viewBox="0 0 25 24" fill="none" xmlns="http://www.w3.org/2000/svg">
<g clip-path="url(#clip0_352_1285)">
<path d="M12.5581 18.0609L6.74086 21.1266L7.85002 14.6391L3.14193 10.0453L9.64715 9.09844L12.5581 3.19219V0C12.0246 0 11.4911 0.276562 11.215 0.834375L8.15891 7.04062L1.32141 8.03437C0.0952449 8.2125 -0.396156 9.72656 0.493046 10.5938L5.43982 15.4219L4.26982 22.2422C4.05922 23.4656 5.34622 24.3984 6.44134 23.8219L12.5581 20.6063V18.0609Z" fill="#FFC403"/>
</g>
<g clip-path="url(#clip1_352_1285)">
<path d="M12.4809 18.0609L18.2982 21.1266L17.189 14.6391L21.8971 10.0453L15.3919 9.09844L12.4809 3.19219V0C13.0145 0 13.548 0.276562 13.8241 0.834375L16.8802 7.04062L23.7177 8.03437C24.9438 8.2125 25.4352 9.72656 24.546 10.5938L19.5992 15.4219L20.7692 22.2422C20.9798 23.4656 19.6928 24.3984 18.5977 23.8219L12.4809 20.6063V18.0609Z" fill="#FFC403"/>
</g>
<defs>
<clipPath id="clip0_352_1285">
<rect width="12.52" height="24" fill="white" transform="matrix(-1 0 0 1 12.5195 0)"/>
</clipPath>
<clipPath id="clip1_352_1285">
<rect width="12.52" height="24" fill="white" transform="matrix(-1 0 0 1 25 0)"/>
</clipPath>
</defs>
</svg>
