<svg width="38" height="38" viewBox="0 0 38 38" fill="none" xmlns="http://www.w3.org/2000/svg">
<path d="M21.4995 3.76738L21.5002 3.76879L24.7241 10.2166C24.7246 10.2176 24.7251 10.2187 24.7256 10.2197C25.0131 10.805 25.5097 11.3307 26.0478 11.7277C26.5873 12.1258 27.2364 12.4446 27.8777 12.5515L27.8781 12.5516L33.726 13.5232C35.4667 13.8133 36.284 14.5434 36.5109 15.2496C36.7374 15.954 36.4995 17.0194 35.2458 18.2646L35.244 18.2664L30.6973 22.813C30.2 23.3104 29.8489 23.9978 29.6518 24.6861C29.4547 25.3748 29.3894 26.1425 29.5425 26.8257L29.5425 26.8257L29.5436 26.8307L30.8452 32.4585C31.3439 34.6227 30.9244 35.7393 30.3573 36.1527C29.7889 36.5671 28.5928 36.6257 26.6775 35.4943L21.1967 32.2498C20.5578 31.8712 19.7614 31.705 19.0062 31.705C18.2504 31.705 17.4523 31.8714 16.8072 32.2468L16.8072 32.2468L16.8023 32.2496L11.3206 35.4947L11.3199 35.4951C9.41737 36.6242 8.22034 36.5633 7.64851 36.1461C7.07726 35.7292 6.65561 34.6102 7.15337 32.4591L7.15339 32.459L8.45506 26.8307L8.45508 26.8307L8.45619 26.8257C8.60932 26.1425 8.54398 25.3748 8.34684 24.6861C8.1498 23.9978 7.79874 23.3104 7.30134 22.813L2.75467 18.2664C1.50935 17.0211 1.26954 15.9544 1.49505 15.2482C1.72034 14.5427 2.53275 13.8132 4.27264 13.5232L10.1206 12.5516L10.1232 12.5511C10.7562 12.4436 11.4004 12.124 11.9363 11.7267C12.4711 11.3301 12.9674 10.8047 13.2548 10.2196L16.4795 3.77019C16.4796 3.76998 16.4797 3.76977 16.4798 3.76957C17.3055 2.12705 18.2605 1.55713 18.9971 1.55713C19.7323 1.55713 20.6829 2.12553 21.4995 3.76738Z" fill="#E8E8E8" stroke="#E8E8E8" stroke-width="1.5" stroke-linecap="round" stroke-linejoin="round"/>
</svg>
